# ProBuilder 5.2.2
# https://unity3d.com/unity/features/worldbuilding/probuilder
# 2/18/2024 12:42:42 AM

mtllib ./Moving_Platform.mtl
o Moving Platform

g Moving model
v -0.5 -0.3 0.5
v -0.5 0.3 0.5
v 0.5 0.3 0.5
v 0.5 -0.3 0.5
v -0.3 0.5 0.3
v -0.3 0.5 -0.3
v 0.3 0.5 -0.3
v 0.3 0.5 0.3
v -0.5 0.3 -0.5
v -0.5 -0.3 -0.5
v 0.5 -0.3 -0.5
v 0.5 0.3 -0.5
v -0.3 -0.5 -0.3
v -0.3 -0.5 0.3
v 0.3 -0.5 0.3
v 0.3 -0.5 -0.3

vt 0 0.2
vt 0 0.8
vt 1 0.8
vt 1 0.2
vt 0.2 0.2
vt 0.2 0.8
vt 0.8 0.8
vt 0.8 0.2
vt -0.1414213 0.3
vt -0.1414213 -0.3
vt 0.1414213 0.5
vt 0.1414213 -0.5
vt 0.3 0.1414214
vt -0.3 0.1414214
vt 0.5 -0.1414214
vt -0.5 -0.1414214
vt 0.1414213 -0.3
vt 0.1414213 0.3
vt -0.1414213 -0.5
vt -0.1414213 0.5
vt 0.5 0.1414214
vt -0.5 0.1414214
vt 0.3 -0.1414214
vt -0.3 -0.1414214

vn 0 0 1
vn 0 1 0
vn 0 0 -1
vn 0 -1 0
vn 1 0 0
vn -1 0 0
vn -0.7071068 0.7071068 0
vn 0 0.7071068 -0.7071068
vn 0.7071068 0.7071068 0
vn 0 0.7071068 0.7071068
vn -0.7071068 -0.7071068 0
vn 0 -0.7071068 0.7071068
vn 0.7071068 -0.7071068 0
vn 0 -0.7071068 -0.7071068

usemtl Floor
f 4/4/1 3/3/1 2/2/1 1/1/1
f 8/8/2 7/7/2 6/6/2 5/5/2
f 12/4/3 11/3/3 10/2/3 9/1/3
f 16/8/4 15/7/4 14/6/4 13/5/4
f 11/4/5 12/3/5 3/2/5 4/1/5
f 1/4/6 2/3/6 9/2/6 10/1/6
f 9/12/7 2/11/7 5/9/7 6/10/7
f 12/16/8 9/15/8 6/13/8 7/14/8
f 3/20/9 12/19/9 7/17/9 8/18/9
f 8/13/10 5/14/10 2/16/10 3/15/10
f 1/20/11 10/19/11 13/17/11 14/18/11
f 14/24/12 15/23/12 4/21/12 1/22/12
f 11/12/13 4/11/13 15/9/13 16/10/13
f 16/24/14 13/23/14 10/21/14 11/22/14

